<?xml version="1.0" encoding="UTF-8"?>
<svg version="1.1" xmlns="http://www.w3.org/2000/svg" width="101" height="105">
<path d="M0 0 C2.31 0.33 4.62 0.66 7 1 C6.96519531 1.61746094 6.93039063 2.23492188 6.89453125 2.87109375 C6.57131121 12.98326371 8.49376729 18.82060786 15.4375 26.3125 C17.26581144 28.23713554 19.12507999 30.11963756 21 32 C21.77472656 32.77730469 22.54945312 33.55460937 23.34765625 34.35546875 C24.16556641 35.16951172 24.16556641 35.16951172 25 36 C20.55659886 38.34745721 16.27168152 40.29109456 11.5 41.875 C2.62774052 45.04541959 -2.6147629 49.69334896 -7 58 C-9.31 57.67 -11.62 57.34 -14 57 C-12.47106445 49.68977691 -7.40047135 44.9663789 -1.625 40.64453125 C2.96483252 37.76905581 7.93006199 35.86155084 13 34 C12.41992188 33.32904297 12.41992188 33.32904297 11.828125 32.64453125 C4.2851823 23.88799629 -0.17389188 18.60643085 -0.0625 6.6875 C-0.05347656 5.43324219 -0.04445313 4.17898437 -0.03515625 2.88671875 C-0.02355469 1.93410156 -0.01195313 0.98148437 0 0 Z " fill="#FFFFFF" transform="translate(73,7)"/>
<path d="M0 0 C0.66 0.33 1.32 0.66 2 1 C3.05941439 14.03668262 -1.53671386 24.53882083 -9 35 C-7.5459375 35.1546875 -7.5459375 35.1546875 -6.0625 35.3125 C2.25564477 36.52486118 9.63245624 39.27797795 15.375 45.625 C17 48 17 48 17 50 C17.66 50 18.32 50 19 50 C19.38133299 51.9914056 19.71325582 53.99279077 20 56 C19 57 19 57 15.9375 57.0625 C14.968125 57.041875 13.99875 57.02125 13 57 C12.4121875 55.63875 12.4121875 55.63875 11.8125 54.25 C9.91456265 50.84680199 8.06322467 49.31811597 5 47 C5 46.34 5 45.68 5 45 C-3.15906215 41.94035169 -11.44538652 40.48000061 -20 39 C-18.63985977 35.0457779 -16.85300159 32.40006975 -14.125 29.25 C-6.99323196 20.4614873 -5.34867111 13.27951028 -5 2 C-2.625 0.9375 -2.625 0.9375 0 0 Z " fill="#FFFFFF" transform="translate(33,45)"/>
<path d="M0 0 C0.03440186 0.6798999 0.06880371 1.3597998 0.10424805 2.06030273 C0.27564937 5.18777893 0.48133145 8.31213074 0.6875 11.4375 C0.76774414 13.04141602 0.76774414 13.04141602 0.84960938 14.67773438 C1.38931749 22.35097587 2.89686233 29.11032382 8.6706543 34.58374023 C9.10933838 35.05110596 9.54802246 35.51847168 10 36 C9.875 38.5625 9.875 38.5625 9 41 C8.01 41.66 7.02 42.32 6 43 C-1.44429296 38.03713803 -3.78631124 28.31454334 -5.4765625 19.97265625 C-6.06144707 16.65103568 -6.61044094 13.35020791 -7 10 C-7.66386719 10.34933594 -8.32773437 10.69867188 -9.01171875 11.05859375 C-9.89472656 11.51363281 -10.77773438 11.96867188 -11.6875 12.4375 C-12.99267578 13.11619141 -12.99267578 13.11619141 -14.32421875 13.80859375 C-22.2602245 17.34214375 -30.87671702 16.47363128 -39 14 C-40.34787458 13.36324546 -41.68614325 12.70427456 -43 12 C-42.1875 9.5625 -42.1875 9.5625 -41 7 C-38 6 -38 6 -34.3125 7.4375 C-25.9402117 10.69844562 -20.13475484 8.6626873 -12.0703125 5.37890625 C-0.09348442 0 -0.09348442 0 0 0 Z " fill="#FFFFFF" transform="translate(58,3)"/>
<path d="M0 0 C13.89218888 2.04966721 21.9006236 10.30038997 30 21 C30.32871094 20.3709375 30.65742187 19.741875 30.99609375 19.09375 C35.61532556 10.7816364 40.9731557 3.95722979 50.3125 1 C53.43194122 0.19627923 55.71244324 0 59 0 C59 2.31 59 4.62 59 7 C57.80375 7.268125 56.6075 7.53625 55.375 7.8125 C51.61394629 8.74444251 48.42488042 10.16808722 45 12 C44.01 12.33 43.02 12.66 42 13 C41.67 13.99 41.34 14.98 41 16 C40.34 16 39.68 16 39 16 C38.73445313 16.70511719 38.46890625 17.41023438 38.1953125 18.13671875 C36.93501033 21.15567786 35.46042006 23.95185076 33.875 26.8125 C33.33617187 27.78832031 32.79734375 28.76414062 32.2421875 29.76953125 C31.83226563 30.50558594 31.42234375 31.24164063 31 32 C26.97449681 30.6581656 26.11714364 28.5772427 24 25 C24 24.34 24 23.68 24 23 C23.34 23 22.68 23 22 23 C22 22.01 22 21.02 22 20 C21.01 19.67 20.02 19.34 19 19 C17.64613064 17.34997172 16.31321858 15.6825613 15 14 C14.01 13.34 13.02 12.68 12 12 C12 11.34 12 10.68 12 10 C11.13375 9.87625 10.2675 9.7525 9.375 9.625 C6.10486147 9.01941879 3.12743101 8.11693965 0 7 C0 4.69 0 2.38 0 0 Z " fill="#FFFFFF" transform="translate(39,63)"/>
<path d="M0 0 C1.70892588 0.45611901 3.41711229 0.91500891 5.125 1.375 C6.55199219 1.75785156 6.55199219 1.75785156 8.0078125 2.1484375 C11 3 11 3 13.82421875 4.0859375 C17.85584605 5.24633207 21.51701976 5.29318012 25.6875 5.25 C26.44611328 5.25773437 27.20472656 5.26546875 27.98632812 5.2734375 C31.84350994 5.25981991 33.72091189 5.18605874 37 3 C39.6875 3.375 39.6875 3.375 42 4 C42.495 6.475 42.495 6.475 43 9 C29.87768171 13.7105758 20.2858567 13.01606695 7 9 C7.165 9.928125 7.33 10.85625 7.5 11.8125 C8.84171291 21.57938071 8.60001055 30.59998417 3 39 C2.34 39 1.68 39 1 39 C0.34 40.32 -0.32 41.64 -1 43 C-1.99 43 -2.98 43 -4 43 C-4.66 42.34 -5.32 41.68 -6 41 C-5.82490875 37.76081196 -5.17820484 36.21978597 -3.125 33.6875 C1.88669055 27.34918548 2.59080265 20.90026794 2 13 C1.72057545 11.32345271 1.39171753 9.65391846 1 8 C0.62890019 5.33710809 0.31679373 2.67011859 0 0 Z " fill="#FFFFFF" transform="translate(6,27)"/>
</svg>
