<!DOCTYPE svg PUBLIC "-//W3C//DTD SVG 1.1//EN" "http://www.w3.org/Graphics/SVG/1.1/DTD/svg11.dtd">
<!-- Uploaded to: SVG Repo, www.svgrepo.com, Transformed by: SVG Repo Mixer Tools -->
<svg fill="#808080" version="1.1" id="Capa_1" xmlns="http://www.w3.org/2000/svg" xmlns:xlink="http://www.w3.org/1999/xlink" viewBox="-8.79 -8.79 105.46 105.46" xml:space="preserve" width="98px" height="98px" stroke="#808080" stroke-width="0.00087881" transform="matrix(-1, 0, 0, 1, 0, 0)rotate(0)">

<g id="SVGRepo_bgCarrier" stroke-width="0"/>

<g id="SVGRepo_tracerCarrier" stroke-linecap="round" stroke-linejoin="round" stroke="#CCCCCC" stroke-width="2.2849060000000003"> <g> <path d="M70.828,0H33.056C27.535,0,23.044,4.484,23.03,10.001h-2.975c-7.183,0-13.027,5.844-13.027,13.027v51.826 c0,7.184,5.844,13.027,13.027,13.027h37.772c7.183,0,13.026-5.844,13.026-13.027v-2.975c5.517-0.015,10.001-4.506,10.001-10.026 V10.027C80.854,4.498,76.356,0,70.828,0z M64.854,30.054v37.774v7.026c0,3.881-3.146,7.027-7.026,7.027H20.055 c-3.882,0-7.027-3.146-7.027-7.027V23.028c0-3.881,3.146-7.027,7.027-7.027h37.772c3.88,0,7.026,3.146,7.026,7.027L64.854,30.054 L64.854,30.054z M74.854,61.853c0,2.212-1.793,4.011-4.001,4.024V30.054v-7.026c0-7.183-5.844-13.027-13.026-13.027H29.031 C29.045,7.793,30.844,6,33.056,6h37.773c2.22,0,4.026,1.807,4.026,4.027V61.853z"/> <rect x="20.941" y="27.313" width="36" height="6"/> <rect x="20.941" y="40.187" width="36" height="6"/> <rect x="20.941" y="53.061" width="36" height="6"/> <rect x="20.941" y="65.935" width="36" height="6"/> </g> </g>

<g id="SVGRepo_iconCarrier"> <g> <path d="M70.828,0H33.056C27.535,0,23.044,4.484,23.03,10.001h-2.975c-7.183,0-13.027,5.844-13.027,13.027v51.826 c0,7.184,5.844,13.027,13.027,13.027h37.772c7.183,0,13.026-5.844,13.026-13.027v-2.975c5.517-0.015,10.001-4.506,10.001-10.026 V10.027C80.854,4.498,76.356,0,70.828,0z M64.854,30.054v37.774v7.026c0,3.881-3.146,7.027-7.026,7.027H20.055 c-3.882,0-7.027-3.146-7.027-7.027V23.028c0-3.881,3.146-7.027,7.027-7.027h37.772c3.88,0,7.026,3.146,7.026,7.027L64.854,30.054 L64.854,30.054z M74.854,61.853c0,2.212-1.793,4.011-4.001,4.024V30.054v-7.026c0-7.183-5.844-13.027-13.026-13.027H29.031 C29.045,7.793,30.844,6,33.056,6h37.773c2.22,0,4.026,1.807,4.026,4.027V61.853z"/> <rect x="20.941" y="27.313" width="36" height="6"/> <rect x="20.941" y="40.187" width="36" height="6"/> <rect x="20.941" y="53.061" width="36" height="6"/> <rect x="20.941" y="65.935" width="36" height="6"/> </g> </g>

</svg>